<svg width="375" height="397" viewBox="0 0 375 397" fill="none" xmlns="http://www.w3.org/2000/svg">
<g opacity="0.1">
<g clip-path="url(#clip0_23_2719)">
<path d="M21.3207 -33V829.987" stroke="white" stroke-width="0.654481"/>
<path d="M63.2075 -33V829.987" stroke="white" stroke-width="0.654481"/>
<path d="M105.094 -33V829.987" stroke="white" stroke-width="0.654481"/>
<path d="M146.981 -33V829.987" stroke="white" stroke-width="0.654481"/>
<path d="M188.868 -33V829.987" stroke="white" stroke-width="0.654481"/>
<path d="M230.754 -33V829.987" stroke="white" stroke-width="0.654481"/>
<path d="M272.641 -33V829.987" stroke="white" stroke-width="0.654481"/>
<path d="M314.528 -33V829.987" stroke="white" stroke-width="0.654481"/>
<path d="M356.415 -33V829.987" stroke="white" stroke-width="0.654481"/>
</g>
<g clip-path="url(#clip1_23_2719)">
<path d="M-230 8.88672L1018.18 8.88672" stroke="white" stroke-width="0.654481"/>
<path d="M-230 50.7736L1018.18 50.7736" stroke="white" stroke-width="0.654481"/>
<path d="M-230 92.6603L1018.18 92.6603" stroke="white" stroke-width="0.654481"/>
<path d="M-230 134.547L1018.18 134.547" stroke="white" stroke-width="0.654481"/>
<path d="M-230 176.434L1018.18 176.434" stroke="white" stroke-width="0.654481"/>
<path d="M-230 218.321L1018.18 218.321" stroke="white" stroke-width="0.654481"/>
<path d="M-230 260.207L1018.18 260.207" stroke="white" stroke-width="0.654481"/>
<path d="M-230 302.094L1018.18 302.094" stroke="white" stroke-width="0.654481"/>
<path d="M-230 343.981L1018.18 343.981" stroke="white" stroke-width="0.654481"/>
<path d="M-230 385.868L1018.18 385.868" stroke="white" stroke-width="0.654481"/>
</g>
</g>
<defs>
<clipPath id="clip0_23_2719">
<rect width="1248.18" height="806.841" fill="white" transform="translate(-230 -33)"/>
</clipPath>
<clipPath id="clip1_23_2719">
<rect width="1248.18" height="806.841" fill="white" transform="translate(-230 -33)"/>
</clipPath>
</defs>
</svg>
